# xmcd CD database file
#
# Track frame offsets:
#	150
#	40375
#	81004
#	112014
#	146916
#	174307
#	198059
#	236477
#	259842
#
# Disc length: 3674 seconds
#
# Revision: 0
# Processed by: cddbd v1.4PL0 Copyright (c) Steve Scherf et al.
# Submitted via: CDex 1.50
#
DISCID=770e5809
DTITLE=Jaromir Honzak - Present Past
DYEAR=2003
DGENRE=Jazz
TTITLE0=Present Past
TTITLE1=Constant Struggle
TTITLE2=Beyond the Mountains
TTITLE3=Around the Corner
TTITLE4=Memory of the Grass
TTITLE5=Souvenir
TTITLE6=Night Arrival
TTITLE7=If
TTITLE8=Hi!
EXTD=YEAR: 2003
EXTT0=
EXTT1=
EXTT2=
EXTT3=
EXTT4=
EXTT5=
EXTT6=
EXTT7=
EXTT8=
PLAYORDER=
